<svg id="Group_14060" data-name="Group 14060" xmlns="http://www.w3.org/2000/svg" xmlns:xlink="http://www.w3.org/1999/xlink" width="49.71" height="60" viewBox="0 0 49.71 60">
  <defs>
    <clipPath id="clip-path">
      <rect id="Rectangle_4720" data-name="Rectangle 4720" width="49.71" height="60" fill="#e8aa47"/>
    </clipPath>
  </defs>
  <g id="Group_14059" data-name="Group 14059" clip-path="url(#clip-path)">
    <path id="Path_50192" data-name="Path 50192" d="M38.393,30.072A15.279,15.279,0,0,1,42.714,32a14.913,14.913,0,0,1,6.87,10.923,15.187,15.187,0,0,1-28.094,9.7.783.783,0,0,0-.777-.452q-9.639.021-19.279.011C.365,52.182,0,51.828,0,50.768Q0,26.1,0,1.435C0,.371.366.005,1.421.005Q14.1,0,26.774,0a1.643,1.643,0,0,1,1.263.519q4.858,4.925,9.743,9.822a1.939,1.939,0,0,1,.624,1.487c-.019,5.88-.011,11.761-.011,17.641v.6M36.179,12.53H27.441c-1.1,0-1.45-.349-1.451-1.451q0-4.2-.006-8.4c0-.15.06-.317-.067-.452H2.2V49.956H20.18c-1.707-5.283-1.056-10.2,2.379-14.563s8.085-6.183,13.6-5.782c.069-.44.087-16.365.016-17.081M34.511,57.8A13.035,13.035,0,1,0,21.473,44.793,13.01,13.01,0,0,0,34.511,57.8M28.168,10.3H34.64L28.168,3.968Z" transform="translate(0 0)" fill="#e8aa47"/>
    <path id="Path_50193" data-name="Path 50193" d="M68.59,203.469q-6.071,0-12.141,0a1.119,1.119,0,0,1-1.117-.637,1.021,1.021,0,0,1,.179-1.176,1.209,1.209,0,0,1,1-.376q2.481,0,4.962,0,9.528,0,19.057,0a2.462,2.462,0,0,1,.574.054,1.064,1.064,0,0,1,.83,1.125,1.1,1.1,0,0,1-.991,1,5.2,5.2,0,0,1-.528.01H68.59Z" transform="translate(-49.385 -180.016)" fill="#e8aa47"/>
    <path id="Path_50194" data-name="Path 50194" d="M68.6,145.351H56.936c-.194,0-.388.007-.581-.005a1.1,1.1,0,0,1-1.073-1.031,1.085,1.085,0,0,1,1.007-1.142,7.363,7.363,0,0,1,.791-.015q11.694,0,23.389,0a3.148,3.148,0,0,1,.629.035,1.1,1.1,0,0,1,.9,1.139,1.111,1.111,0,0,1-1.037,1.012c-.157.014-.317.007-.475.007H68.6" transform="translate(-49.441 -128.029)" fill="#e8aa47"/>
    <path id="Path_50195" data-name="Path 50195" d="M66.464,255.571q-4.966,0-9.931,0a1.1,1.1,0,0,1-1.241-1.123,1.074,1.074,0,0,1,.9-1.025,4.338,4.338,0,0,1,.685-.028H76.261c.755,0,1.177.252,1.327.794a1.076,1.076,0,0,1-1.139,1.381c-1.814.01-3.627,0-5.441,0H66.464" transform="translate(-49.45 -226.62)" fill="#e8aa47"/>
    <path id="Path_50196" data-name="Path 50196" d="M62.8,307.661q-3.2,0-6.391,0a1.069,1.069,0,0,1-1.058-.64,1.016,1.016,0,0,1,.151-1.133,1.055,1.055,0,0,1,.882-.394q6.364,0,12.728,0a1.09,1.09,0,0,1,1.216,1.1,1.108,1.108,0,0,1-1.244,1.067c-2.1,0-4.19,0-6.285,0" transform="translate(-49.403 -273.212)" fill="#e8aa47"/>
    <path id="Path_50197" data-name="Path 50197" d="M61.023,359.771c-1.5,0-2.991,0-4.487,0-.759,0-1.229-.417-1.236-1.068a1.073,1.073,0,0,1,1.213-1.091q4.513-.01,9.027,0a1.1,1.1,0,0,1,1.241,1.07,1.134,1.134,0,0,1-1.271,1.1c-1.495-.034-2.991-.01-4.487-.01" transform="translate(-49.458 -319.823)" fill="#e8aa47"/>
    <path id="Path_50198" data-name="Path 50198" d="M257.055,376.766c1.011-1.189,2.012-2.364,3.01-3.541q2.217-2.615,4.433-5.231a1.1,1.1,0,1,1,1.67,1.407q-3.2,3.789-6.415,7.562c-.523.616-1.042,1.237-1.568,1.851a1.129,1.129,0,0,1-1.818.195q-2.688-2.127-5.364-4.27a1.1,1.1,0,0,1-.282-1.651,1.11,1.11,0,0,1,1.638-.056c1.556,1.233,3.109,2.471,4.7,3.735" transform="translate(-223.995 -328.657)" fill="#e8aa47"/>
  </g>
</svg>
